<svg xmlns="http://www.w3.org/2000/svg" height="1024" preserveAspectRatio="none" style="display: block;" version="1.1" viewBox="0 0 2432 2432" width="1024"><g transform="translate(0.00 0.00) scale(1.1875)">

<path d="M 702.203 242.364 C 736.716 240.983 764.309 276.212 782.446 301.601 C 939.848 226.776 1090.52 223.055 1248.32 300.657 C 1268.18 276.364 1300.16 233.616 1336.39 244.24 C 1350.54 248.391 1366.54 256.105 1380.14 262.112 C 1401.3 271.226 1422.42 280.474 1443.47 289.856 C 1462.51 298.317 1481.64 306.122 1500.71 315.429 C 1544.78 336.937 1515.96 395.348 1501.54 427.623 C 1488.59 456.626 1467.37 484.35 1439.7 501.212 C 1451.84 525.423 1463.05 544.616 1472.94 570.478 C 1543.55 755.152 1480.49 974.665 1319.29 1091.84 C 1345.92 1119.51 1349.11 1143.83 1326.35 1175.75 C 1368.38 1202.51 1394.28 1236.95 1388.15 1288.97 C 1444.56 1342.43 1442.68 1381.64 1393.98 1440.98 C 1405.62 1469.35 1395.32 1468.46 1393.47 1492.89 C 1390.92 1526.5 1401.47 1565.02 1367.19 1588.27 C 1360.54 1592.69 1353.09 1595.76 1345.25 1597.3 C 1329.14 1600.61 1274.19 1599.47 1257.56 1596.1 C 1257.2 1600.24 1256.83 1601.52 1257.87 1605.44 C 1262.74 1609.57 1274 1611.48 1280.49 1612.88 C 1317.86 1620.95 1356.48 1621.97 1394.5 1618.54 C 1411.38 1617.02 1428.46 1608.5 1444.86 1609.11 C 1448.6 1609.44 1452.94 1611.81 1455.01 1614.92 C 1466.28 1631.86 1450.74 1652.28 1436.78 1661.02 C 1388.89 1691.02 1319.22 1701.13 1264.39 1691.28 L 1261.98 1704.16 C 1280.24 1714.96 1299.16 1725.26 1318.03 1735.2 C 1356.77 1755.6 1371.88 1774.01 1383.92 1815.71 C 1386.17 1823.51 1388.33 1855.99 1383.71 1863.27 C 1380.2 1868.79 1368.32 1870.79 1362.1 1872.35 C 1335.08 1878.39 1298.75 1883.76 1270.88 1884.77 C 1249.68 1885.32 1228.46 1885.08 1207.27 1884.04 C 1182.27 1882.62 1046.22 1870.24 1032.87 1862.19 C 1029.99 1860.45 1029.09 1857.53 1028.49 1854.37 C 1026.83 1845.54 1026.96 1824.27 1028.91 1815.84 C 1029.48 1813.38 1031.07 1811.28 1032.52 1809.27 C 1026.28 1769.8 1026.17 1734.5 1026.58 1694.57 C 1026.68 1685.35 1029.75 1675.36 1030.09 1666.77 C 1030.76 1650.45 1030.68 1633.36 1030.78 1617 L 1007.82 1617 C 1007.74 1632.31 1007.5 1648.15 1007.84 1663.43 C 1008 1673.02 1011.01 1682.98 1011.12 1692.51 C 1011.43 1721.3 1012.44 1750.64 1009.31 1779.29 C 1008.21 1789.37 1006.44 1798.9 1005.89 1809 C 1007.19 1810.67 1009.95 1814.1 1009.84 1815.93 C 1009.3 1824.97 1011.88 1855.27 1006.61 1861.29 C 989.437 1871.53 835.031 1883.94 806.298 1884.69 C 780.099 1885.38 672.736 1881.09 654.885 1863.92 C 651.668 1856.4 652.718 1822.66 655.441 1815.23 C 656.895 1811.26 663.213 1792.32 664.76 1788.14 C 676.399 1756.67 710.223 1741.72 737.558 1727.1 C 750.854 1719.98 762.959 1712.03 776.91 1705.52 C 771.446 1688.17 780.049 1687.57 780.415 1672.35 C 781.005 1647.88 780.752 1622.46 780.629 1597.97 C 761.971 1598.79 743.271 1599.07 724.6 1599.04 C 713.904 1599.03 699.071 1599.73 688.756 1597.93 C 681.758 1596.76 675.051 1594.25 669.003 1590.53 C 632.27 1567.93 639.949 1529.87 639.145 1494.18 C 638.617 1470.71 626.831 1463.32 641.881 1438.38 C 616.334 1408.59 597.226 1371.24 615.097 1332.83 C 624.318 1313.01 635.106 1303.31 651.087 1289.48 C 648.228 1236.32 667.613 1205.29 711.014 1175.36 C 702.273 1165 697.284 1151.98 696.856 1138.43 C 696.281 1119.33 702.953 1106.97 715.606 1093.48 C 631.242 1029.48 571.451 938.413 546.26 835.558 C 518.11 724.861 537.964 599.598 596.277 501.684 C 592.351 499.306 587.792 496.387 584.002 493.453 C 546.919 464.734 517.528 410.746 508.908 365.145 C 506.857 351.275 509.73 337.265 518.533 326.278 C 525.467 317.136 535.842 312.752 546.031 308.216 C 593.685 287.001 641.297 265.443 689.383 245.248 C 693.376 243.572 697.931 242.867 702.203 242.364 z" fill="rgb(34,28,27)" transform="translate(0,0)"></path>
<path d="M 705.057 249.352 C 736.468 250.897 764.552 287.386 779.119 312.166 C 790.267 307.622 804.4 299.665 816.215 294.393 C 846.159 280.894 877.437 270.573 909.534 263.599 C 1000.59 243.132 1095.6 249.121 1183.37 280.86 C 1206.51 289.108 1229.65 298.417 1250.45 311.653 C 1263.86 290.619 1304.91 239.837 1333.68 250.996 C 1388.31 272.04 1440.65 297.506 1494.7 320.379 C 1540.5 339.766 1503.07 405.104 1489.43 434.761 C 1474.17 467.974 1427.02 521.548 1385.97 494.174 C 1343.33 465.731 1329.75 393.732 1321.71 345.785 C 1319.38 331.75 1319.15 313.431 1315.76 300.372 C 1313.18 299.879 1312.62 300.172 1309.98 300.555 C 1306.88 308.275 1321.95 389.177 1326.05 403.55 C 1340.44 453.924 1366.85 523.981 1432.44 504.308 C 1439.63 517.494 1447.67 531.308 1453.88 544.902 C 1484.51 612.547 1497.95 686.717 1492.98 760.809 C 1486.1 880.682 1427 987.965 1338.27 1067.08 C 1292.94 1105.07 1250.84 1130.14 1194.32 1148.02 C 1180.5 1152.4 1164.64 1159.25 1150.44 1162.69 C 1073.33 1180.87 983.562 1183.33 905.872 1167.62 C 864.538 1159.26 798.121 1137.84 762.055 1115.83 C 548.937 985.746 478.205 722.491 603.163 504.988 L 605.043 505.475 C 678.043 523.744 699.531 436.559 713.585 382.601 C 716.071 373.055 726.135 304.279 723.819 300.61 L 719.507 300.144 C 718.887 300.509 718.266 300.874 717.646 301.238 C 716.802 311.48 715.882 319.937 714.772 330.284 C 708.591 387.902 676.137 551.285 587.821 487.078 C 553.385 462.042 523.208 405.28 516.412 363.584 C 513.675 346.791 520.887 327.789 537.355 320.366 C 577.514 301.719 618.483 284.265 658.854 266.05 C 673.042 259.648 689.833 251.168 705.057 249.352 z" fill="rgb(250,249,242)" transform="translate(0,0)"></path>
<path d="M 1018.6 637.849 C 1045.21 585.373 1090.34 551.119 1148.94 542.553 C 1194.5 536.098 1240.75 547.904 1277.64 575.399 C 1312.7 601.722 1338.4 645.413 1344.49 688.929 C 1351.28 735.407 1338.79 782.639 1309.91 819.685 C 1279.91 858.885 1240.12 880.208 1191.73 886.823 C 1181.22 887.366 1172.07 888.047 1161.47 887.333 C 1097.27 883.001 1047.68 847.394 1017.47 791.916 C 1011.64 802.497 1005.23 813.326 997.693 822.784 C 968.796 858.698 926.847 881.7 881.028 886.756 C 835.292 891.25 789.635 877.46 754.033 848.399 C 718.935 819.558 696.61 778.051 691.895 732.868 C 682.061 634.478 749.831 551.219 848.295 541.397 C 907.223 535.092 968.71 564.758 1002.65 612.59 C 1008.46 620.778 1013.48 629.236 1018.6 637.849 z" fill="rgb(34,28,27)" transform="translate(0,0)"></path>
<path d="M 1171.08 547.426 C 1189.89 547.922 1204.9 549.468 1223.04 555.217 C 1265.79 568.772 1301.27 598.99 1321.46 639.038 C 1341.26 678.263 1344.64 723.757 1330.84 765.476 C 1316.56 808.635 1285.57 844.27 1244.82 864.412 C 1205.84 883.33 1160.99 886.143 1119.96 872.241 C 1069.14 855.047 1040.07 822.409 1017.16 775.65 C 994.346 838.87 931.557 877.356 866.215 880.977 C 846.429 881.024 826.791 877.575 808.204 870.79 C 764.472 855.045 732.614 825.702 713.034 783.588 C 694.402 743.576 692.474 697.791 707.677 656.355 C 722.655 615.056 753.519 581.457 793.401 563.035 C 833.638 544.464 879.622 542.717 921.152 558.181 C 968.644 576.048 998.257 610.705 1018.52 655.684 C 1025.67 635.983 1036.57 617.85 1050.6 602.284 C 1083.06 566.017 1123.43 550.267 1171.08 547.426 z" fill="rgb(255,255,255)" transform="translate(0,0)"></path>
<path d="M 1085.05 675.845 C 1100.21 672.313 1115.34 681.817 1118.74 697.007 C 1122.15 712.198 1112.51 727.249 1097.29 730.52 C 1082.26 733.752 1067.43 724.259 1064.07 709.252 C 1060.71 694.246 1070.07 679.335 1085.05 675.845 z" fill="rgb(34,28,27)" transform="translate(0,0)"></path>
<path d="M 950.366 675.466 C 965.474 672.472 980.164 682.243 983.242 697.335 C 986.319 712.427 976.628 727.171 961.553 730.331 C 946.361 733.516 931.477 723.733 928.376 708.523 C 925.274 693.313 935.139 678.484 950.366 675.466 z" fill="rgb(34,28,27)" transform="translate(0,0)"></path>
<path d="M 1016.32 745.551 C 1021.1 744.62 1025.77 747.632 1026.89 752.377 C 1028.02 757.121 1025.2 761.908 1020.51 763.225 C 1017.29 764.126 1013.85 763.195 1011.52 760.8 C 1009.2 758.405 1008.38 754.931 1009.38 751.749 C 1010.38 748.566 1013.04 746.188 1016.32 745.551 z" fill="rgb(34,28,27)" transform="translate(0,0)"></path>
<path d="M 1015.17 698.412 C 1015.84 698.474 1021.38 698.646 1021.52 699.52 C 1022.34 704.939 1021.99 712.262 1021.59 717.735 C 1011.58 715.537 1015.15 708.77 1015.17 698.412 z" fill="rgb(34,28,27)" transform="translate(0,0)"></path>
<style>.mouth-group{opacity:0}.mouth-group.mouth-X{opacity:1}</style>
<g class="mouth-rig" transform="translate(1021.96 996.47) scale(0.5598)">
<g class="mouth-wrap">
<g class="mouth-group mouth-X"><path d="M -75 0 L 75 0" fill="none" stroke="#0c0c0c" stroke-width="22" stroke-linecap="round"/></g>
<g class="mouth-group mouth-A"><path d="M -80 0 Q 0 18 80 0" fill="none" stroke="#0c0c0c" stroke-width="22" stroke-linecap="round"/></g>
<g class="mouth-group mouth-B"><ellipse cx="0" cy="0" rx="75" ry="12" fill="#3B1414"/></g>
<g class="mouth-group mouth-C"><ellipse cx="0" cy="8" rx="70" ry="38" fill="#3B1414" stroke="#0c0c0c" stroke-width="7"/></g>
<g class="mouth-group mouth-D"><ellipse cx="0" cy="0" rx="90" ry="60" fill="#3B1414" stroke="#0c0c0c" stroke-width="7"/></g>
<g class="mouth-group mouth-E"><ellipse cx="0" cy="0" rx="55" ry="40" fill="#3B1414" stroke="#0c0c0c" stroke-width="7"/></g>
<g class="mouth-group mouth-F"><ellipse cx="0" cy="0" rx="32" ry="36" fill="#3B1414" stroke="#0c0c0c" stroke-width="7"/></g>
<g class="mouth-group mouth-G"><path d="M -80 -8 L 80 -8 L 70 22 L -70 22 Z" fill="#3B1414" stroke="#0c0c0c" stroke-width="7"/></g>
<g class="mouth-group mouth-H"><ellipse cx="0" cy="0" rx="72" ry="42" fill="#3B1414" stroke="#0c0c0c" stroke-width="7"/><ellipse cx="0" cy="0" rx="32" ry="22" fill="#D47272"/></g>
</g>
</g>
<path d="M 1321.07 1180.18 C 1363.17 1203.85 1387.51 1243.13 1380.68 1291.87 C 1437.81 1341.35 1435.78 1380.84 1387.67 1437.06 L 1297.81 1437.05 C 1302.15 1399.54 1283.43 1373.3 1261.67 1344.99 C 1267.08 1319.88 1272.05 1285.44 1260.56 1260.6 C 1260.15 1259.72 1258.53 1260.28 1257.69 1260.4 C 1254.82 1265.75 1259.79 1278.78 1260.33 1285.76 C 1261.99 1307.36 1258.91 1326.12 1253.4 1347.05 C 1276.69 1369.11 1297.01 1405.91 1291.16 1438.84 C 1286.77 1463.53 1269.81 1489.02 1249.58 1503.56 C 1232.01 1504.2 1210.7 1503.68 1192.91 1503.7 L 1081.93 1503.66 C 984.516 1503.26 887.1 1503.35 789.686 1503.93 C 753.922 1472.32 739.245 1437.11 757.979 1391.39 C 766.358 1372.62 774.437 1361.72 787.883 1346.54 C 782.171 1328.31 779.5 1306.33 781.345 1287.15 C 782.14 1278.89 785.394 1269.52 785.553 1260.73 C 783.069 1259.21 784.423 1259.51 781.298 1260.15 C 777.351 1264.34 777.553 1271.65 776.736 1277.11 C 773.178 1300.87 774.722 1321.09 780.742 1344.27 C 756.123 1374.07 742.236 1398.14 743.099 1437.05 C 712.148 1437.21 681.196 1437.2 650.245 1437.01 C 648.069 1434.91 645.947 1432.76 643.881 1430.55 C 627.824 1413.05 613.151 1383.25 614.933 1359.09 C 617.175 1328.7 636.8 1310.81 657.638 1292.14 C 657.177 1275.72 656.972 1262.75 661.699 1246.56 C 669.722 1219.09 692.108 1193.96 717.045 1180.43 C 739.362 1193.57 785.87 1202.96 813.431 1210.46 C 863.293 1223.79 912.84 1238.28 962.032 1253.9 C 979.471 1259.5 1003.95 1266.61 1020.41 1273.72 C 1065.18 1257.43 1110.59 1242.92 1156.51 1230.23 C 1187.12 1221.36 1217.81 1212.77 1248.58 1204.48 C 1273.12 1198.08 1300.39 1194.78 1321.07 1180.18 z" fill="rgb(254,54,8)" transform="translate(0,0)"></path>
<path d="M 787.261 1560.28 C 821.594 1561.62 859.587 1560.59 894.132 1560.55 L 1046.88 1560.94 L 1175.98 1560.9 C 1199.7 1560.88 1227.48 1561.49 1250.87 1560.18 C 1250.77 1574.65 1251.89 1663.48 1249.09 1671.96 C 1233.02 1669.13 1204.79 1675.8 1187.49 1677.03 C 1173.55 1678.58 1159.5 1679.23 1145.65 1681.52 C 1142.24 1682.09 1139.33 1684.12 1136.62 1686.09 L 1116.68 1685.1 C 1095.8 1684.86 1057.74 1682.79 1037.77 1678.66 C 1036.92 1659.21 1037.3 1636.58 1037.51 1617.04 C 1045.74 1616.97 1061.79 1618.3 1068.85 1615.97 L 1069.71 1614.03 C 1068.09 1610.59 1069.28 1612 1065.75 1609.93 C 1041.9 1608.99 1016.8 1611.45 992.805 1610.09 C 986.249 1609.72 978.92 1609.04 972.721 1611.37 C 970.364 1614 970.856 1612.53 970.966 1615.87 C 973.566 1617.63 996.064 1617.08 1000.95 1617.1 C 1001.15 1637.77 1001.04 1658.43 1000.63 1679.09 C 975.907 1684.35 920.595 1687.52 895.823 1683.15 C 863.392 1677.43 830.45 1675.58 797.586 1670.98 C 793.629 1670.43 791.708 1672.5 787.953 1671.95 C 786.442 1666.08 787.353 1633.3 787.422 1625.61 C 787.594 1603.83 787.54 1582.06 787.261 1560.28 z" fill="rgb(250,249,242)" transform="translate(0,0)"></path>
<path d="M 1033.01 1685.22 C 1070 1690.93 1094.46 1690.9 1131.34 1692.97 C 1126.77 1711.5 1130.5 1715.82 1145.15 1725.56 C 1149.59 1728.8 1144.01 1736.01 1145.88 1742.11 C 1153.13 1765.68 1199.81 1754.7 1217.67 1751.57 C 1204.99 1763.86 1196.65 1775.81 1189.29 1791.72 C 1184.72 1802.62 1181.74 1814.13 1180.44 1825.87 C 1135.74 1822.71 1083.5 1817.77 1039.22 1810.52 C 1033.26 1766.14 1033.83 1730 1033.01 1685.22 z" fill="rgb(250,249,242)" transform="translate(0,0)"></path>
<path d="M 1001.39 1685.34 L 1003.52 1684.88 L 1004.86 1685.94 C 1006.34 1732.58 1004.42 1765.08 998.58 1810.66 C 951.892 1815.56 907.905 1823.6 860.059 1825.14 C 858.386 1814.04 856.568 1807.16 852.634 1796.73 C 845.127 1778.13 836.741 1766.17 822.877 1752.02 C 845.336 1756.56 903.8 1767.77 891.82 1725.75 C 907.417 1718.12 910.49 1709.54 906.8 1692.42 C 937.327 1691.97 971.341 1690.29 1001.39 1685.34 z" fill="rgb(250,249,242)" transform="translate(0,0)"></path>
<path d="M 999.498 1817.41 L 1001.86 1817.31 C 1004.34 1820.94 1003.06 1849.95 1002.97 1856.08 C 987.939 1860.22 952.616 1864.4 935.511 1866.53 C 845.386 1877.79 752.094 1885.63 663.225 1862.17 L 661.092 1860.91 C 658.672 1856 660.252 1825.13 660.549 1818.27 C 683.205 1825.33 706.484 1830.22 730.068 1832.86 C 759.385 1836.03 787.658 1834.96 817.003 1834.27 C 879.108 1832.81 938.023 1825.51 999.498 1817.41 z" fill="rgb(250,249,242)" transform="translate(0,0)"></path>
<path d="M 1035.29 1817.47 C 1049.18 1818.04 1079.58 1823.76 1096.3 1825.35 C 1187.92 1834.04 1289.58 1846.29 1378.69 1818.19 C 1379.22 1831.25 1379.29 1847.48 1378.79 1860.47 C 1368.12 1864.64 1348.61 1868.21 1336.82 1870.36 C 1260.02 1884.36 1181.12 1875.76 1104.22 1866.74 C 1085.49 1864.55 1053.11 1860.86 1035.94 1856.58 C 1035.22 1843.48 1035.31 1830.58 1035.29 1817.47 z" fill="rgb(250,249,242)" transform="translate(0,0)"></path>
<path d="M 1305.24 1736.49 C 1310.93 1738.22 1327.57 1748.49 1332.99 1752.22 C 1356.53 1768.46 1368.93 1784.76 1374.16 1812.74 C 1334.47 1825.06 1297.53 1827.84 1256.43 1828.34 C 1233.01 1828.27 1209.6 1827.58 1186.21 1826.28 C 1190.35 1804.89 1196.25 1789.41 1208.16 1771.22 C 1226.95 1742.5 1272.53 1741.73 1305.24 1736.49 z" fill="rgb(250,249,242)" transform="translate(0,0)"></path>
<path d="M 736.568 1736.07 C 757.87 1742.86 798.988 1744.14 815.295 1754.85 C 837.475 1769.42 848.745 1800.85 853.665 1825.72 C 830.123 1827.1 806.55 1827.88 782.969 1828.06 C 738.607 1828.25 707.675 1825.37 664.946 1812.34 C 674.884 1767.54 697.791 1755.7 736.568 1736.07 z" fill="rgb(250,249,242)" transform="translate(0,0)"></path>
<path d="M 646.02 1490.67 C 680.131 1494.05 724.525 1489.19 758.752 1494 C 762.161 1494.48 777.586 1505.74 781.584 1508.54 C 770.794 1525.31 778.611 1541.56 779.986 1559.63 C 780.617 1567.92 780.479 1578.29 780.514 1586.75 C 778.895 1592.47 761.467 1592.01 756.056 1591.57 C 725.223 1589.04 686.378 1600.48 662.419 1575.87 C 640.81 1553.68 645.881 1519.57 646.02 1490.67 z" fill="rgb(250,249,242)" transform="translate(0,0)"></path>
<path d="M 1277.39 1492.11 C 1313.4 1491.56 1350.57 1492.03 1386.68 1492.02 C 1386.56 1528.89 1393.32 1565.13 1356.27 1586.43 C 1337.41 1594.88 1277.15 1593.35 1257.81 1588.27 C 1257.77 1579.97 1256.98 1561.78 1258.21 1554.12 C 1261.72 1532.35 1266.07 1530.47 1257.37 1508.56 C 1264.12 1503.99 1271.4 1497.64 1277.39 1492.11 z" fill="rgb(250,249,242)" transform="translate(0,0)"></path>
<path d="M 1257.16 1613.04 C 1301.3 1627.46 1348.84 1630.41 1395.19 1625.25 C 1411.12 1623.89 1426.22 1617.41 1442.08 1616.42 C 1448.57 1616.01 1453.67 1621.89 1452.07 1628.35 C 1448.9 1641.12 1441.54 1649.03 1431.12 1656.44 C 1400.4 1676.52 1303.04 1700.64 1260.08 1681.01 C 1255.7 1679 1257.19 1623.92 1257.16 1613.04 z" fill="rgb(250,249,242)" transform="translate(0,0)"></path>
<path d="M 1313.57 1096.26 C 1335.92 1117.21 1343.28 1146.38 1321.02 1170.66 C 1304.58 1188.59 1264.71 1193.91 1241.02 1200.18 C 1205.29 1209.63 1169.72 1219.67 1134.31 1230.27 C 1118.84 1234.88 1095.93 1241.14 1081.1 1246.89 L 1076.81 1245.22 C 1101.29 1232.18 1127.77 1219.05 1151.33 1204.71 C 1182.61 1185.67 1226.48 1168.31 1246.15 1136.34 C 1272.72 1122.99 1289.39 1113.83 1313.57 1096.26 z" fill="rgb(254,54,8)" transform="translate(0,0)"></path>
<path d="M 721.506 1096.99 C 743.561 1114.41 762.885 1123.71 786.554 1137.42 C 798.548 1144.37 811.527 1160.65 825.528 1169.2 C 869.717 1196.17 916.453 1221.22 962.742 1244.49 L 958.985 1246.24 C 953.948 1244.28 947.639 1242.79 942.386 1241.15 C 896.78 1226.86 850.587 1213.84 804.551 1201.11 C 781.078 1194.45 754.49 1190.01 731.771 1181.33 C 715.169 1174.99 703.65 1152.86 704.468 1135.68 C 705.281 1118.6 709.648 1108.71 721.506 1096.99 z" fill="rgb(254,54,8)" transform="translate(0,0)"></path>
<path d="M 1020.41 1267.12 C 1005.06 1258.2 889.418 1201.14 884.72 1194.26 C 891.464 1194.35 908.645 1200.83 916.465 1202.51 C 986.969 1217.73 1067.16 1217.02 1137.14 1199.18 C 1139.94 1199.9 1139.83 1200.29 1141.73 1202.54 C 1123.25 1214.29 1106.08 1222.17 1087.12 1232.33 C 1064.6 1244.39 1043.33 1255.82 1020.41 1267.12 z" fill="rgb(3,39,252)" transform="translate(0,0)"></path>
<path d="M 878.812 1168.45 C 971.53 1190.85 1068.27 1190.7 1160.91 1168 C 1159.26 1174.56 1158.54 1178.88 1154 1183.88 C 1103.22 1215.59 968.973 1209.28 909.707 1195.24 C 892.33 1191.12 878.741 1188.67 878.812 1168.45 z" fill="rgb(3,39,252)" transform="translate(0,0)"></path>
<path d="M 1238.7 1677.42 C 1247.56 1676.11 1256 1682.92 1257.18 1691.75 C 1259.74 1710.86 1241.31 1711.42 1227.61 1713.15 C 1203.56 1716.19 1179.54 1718.6 1155.44 1720.95 C 1133.38 1718.45 1128.12 1697.34 1146.53 1688.37 C 1151.05 1686.16 1179.24 1684.42 1186.31 1683.71 C 1203.79 1681.82 1221.26 1679.73 1238.7 1677.42 z" fill="rgb(250,249,242)" transform="translate(0,0)"></path>
<path d="M 792.934 1678.06 C 796.81 1677.55 886.86 1686.86 892.385 1688.45 C 895.589 1689.41 898.272 1691.61 899.823 1694.58 C 905.085 1704.52 900.603 1714.25 891.194 1719.36 C 867.649 1722.77 826.627 1713.36 802.014 1712.11 C 797.417 1711.22 786.964 1710.63 784.699 1705.9 C 778.198 1692.35 781.953 1685 792.934 1678.06 z" fill="rgb(250,249,242)" transform="translate(0,0)"></path>
<path d="M 1284.75 1733.6 C 1252.01 1741.32 1214.49 1745.64 1180.96 1749.83 C 1168.07 1751.45 1142.53 1746.8 1154.19 1728.27 C 1165.65 1726.18 1247.66 1716.27 1253.94 1717.72 C 1254.4 1717.83 1254.85 1717.96 1255.3 1718.08 C 1265.41 1720.59 1275.14 1725.23 1284.74 1729.21 C 1285.9 1729.66 1290.96 1731.06 1291.29 1732.31 C 1290.66 1733.24 1286.01 1733.43 1284.75 1733.6 z" fill="rgb(250,249,242)" transform="translate(0,0)"></path>
<path d="M 1284.74 1729.21 C 1285.9 1729.66 1290.96 1731.06 1291.29 1732.31 C 1290.66 1733.24 1286.01 1733.43 1284.75 1733.6 C 1283.96 1732.26 1283.36 1731.6 1284.2 1730.2 L 1284.74 1729.21 z" fill="rgb(255,255,255)" transform="translate(0,0)"></path>
<path d="M 784.964 1716.99 C 785.463 1716.95 785.962 1716.91 786.461 1716.86 C 817.684 1720.46 849.178 1724.37 880.543 1726.65 C 892.37 1727.51 885.751 1746.64 876.96 1749.07 C 868.912 1751.3 863.187 1750.56 854.767 1749.84 C 818.942 1745.24 783.296 1739.35 747.898 1732.17 C 759.883 1726.88 772.784 1721.86 784.964 1716.99 z" fill="rgb(250,249,242)" transform="translate(0,0)"></path>
<path d="M 1022.81 1508.94 L 1055.74 1508.96 C 1055.93 1524 1055.92 1539.05 1055.73 1554.09 C 1045.16 1554.47 1033.3 1554.23 1022.68 1554.2 C 1022.62 1539.11 1022.66 1524.02 1022.81 1508.94 z" fill="rgb(254,54,8)" transform="translate(0,0)"></path>
<path d="M 1060.79 1509.03 L 1091.04 1509.05 L 1091.07 1554.06 L 1060.56 1554.04 L 1060.79 1509.03 z" fill="rgb(254,54,8)" transform="translate(0,0)"></path>
<path d="M 884.925 1508.93 L 915.051 1508.95 C 915.178 1524.01 915.173 1539.08 915.034 1554.14 L 884.83 1554.1 L 884.925 1508.93 z" fill="rgb(254,54,8)" transform="translate(0,0)"></path>
<path d="M 849.921 1508.95 C 859.795 1508.89 869.669 1508.88 879.543 1508.93 C 879.771 1524.05 879.787 1539.17 879.59 1554.29 C 870.173 1554.52 859.333 1554.35 849.918 1554.21 C 849.838 1539.13 849.839 1524.04 849.921 1508.95 z" fill="rgb(254,54,8)" transform="translate(0,0)"></path>
<path d="M 920.071 1508.98 L 949.689 1508.97 C 949.827 1524 949.82 1539.03 949.669 1554.07 L 920.095 1554.01 C 919.989 1539 919.981 1523.99 920.071 1508.98 z" fill="rgb(254,54,8)" transform="translate(0,0)"></path>
<path d="M 816.237 1508.99 C 825.763 1508.93 835.289 1508.91 844.816 1508.94 C 844.723 1524.07 844.918 1539.14 844.706 1554.31 C 835.173 1554.34 825.639 1554.25 816.108 1554.03 C 816.009 1539.02 816.052 1524.01 816.237 1508.99 z" fill="rgb(254,54,8)" transform="translate(0,0)"></path>
<path d="M 988.723 1508.92 L 1016.85 1508.92 C 1016.77 1523.98 1016.95 1539.23 1016.53 1554.27 L 988.272 1554.1 L 988.723 1508.92 z" fill="rgb(254,54,8)" transform="translate(0,0)"></path>
<path d="M 954.862 1508.9 L 983.083 1508.92 C 983.198 1524 983.203 1539.07 983.1 1554.14 L 954.93 1554 C 954.745 1538.96 954.723 1523.93 954.862 1508.9 z" fill="rgb(254,54,8)" transform="translate(0,0)"></path>
<path d="M 1096.29 1509.11 L 1124.27 1509.09 C 1124.42 1524.06 1124.41 1539.03 1124.23 1554 L 1096.4 1553.96 C 1096.01 1539.47 1096.13 1523.66 1096.29 1509.11 z" fill="rgb(254,54,8)" transform="translate(0,0)"></path>
<path d="M 1129.98 1509.04 L 1157.57 1509.01 C 1157.71 1524.01 1157.74 1539.02 1157.66 1554.02 L 1129.91 1553.94 L 1129.98 1509.04 z" fill="rgb(254,54,8)" transform="translate(0,0)"></path>
<path d="M 1162.9 1509.02 L 1189.74 1509.03 L 1189.83 1554.04 C 1180.92 1554.13 1171.78 1554.04 1162.85 1554 C 1162.75 1539.01 1162.77 1524.01 1162.9 1509.02 z" fill="rgb(254,54,8)" transform="translate(0,0)"></path>
<path d="M 790.453 1509.11 C 797.312 1509.02 804.172 1508.99 811.032 1509 C 811.016 1522.51 811.708 1539.9 810.687 1553.53 C 810.634 1554.24 805.574 1554.05 805.115 1554.05 C 788.112 1553.47 782.913 1553.62 782.607 1534 C 782.416 1521.79 781.931 1518.03 790.453 1509.11 z" fill="rgb(254,54,8)" transform="translate(0,0)"></path>
<path d="M 1226.33 1509.2 C 1252.54 1509.56 1256.48 1508.83 1254.92 1539.49 C 1254.77 1542.45 1251.93 1546.93 1250.36 1549.42 C 1249.87 1549.87 1249.38 1550.33 1248.9 1550.79 C 1244.07 1555.4 1234.2 1553.88 1226.6 1553.95 C 1226.22 1538.99 1226.55 1524.12 1226.33 1509.2 z" fill="rgb(254,54,8)" transform="translate(0,0)"></path>
<path d="M 1195 1509.11 C 1203.85 1509.05 1212.7 1509.04 1221.54 1509.1 C 1221.67 1524.09 1221.62 1539.08 1221.4 1554.07 L 1195.04 1554.02 L 1195 1509.11 z" fill="rgb(254,54,8)" transform="translate(0,0)"></path>
<path d="M 1364.4 1442.66 C 1367.14 1442.62 1384.75 1442.15 1385.97 1443.18 C 1395.95 1451.68 1393.54 1470.9 1389.05 1480.94 C 1384.28 1487.94 1372.85 1485.17 1364.23 1485.15 C 1364.04 1470.99 1364.1 1456.82 1364.4 1442.66 z" fill="rgb(254,54,8)" transform="translate(0,0)"></path>
<path d="M 1332.52 1442.83 C 1341.38 1442.78 1350.24 1442.77 1359.11 1442.81 L 1359.18 1485.18 L 1332.52 1485.21 C 1332.13 1471.09 1332.13 1456.96 1332.52 1442.83 z" fill="rgb(254,54,8)" transform="translate(0,0)"></path>
<path d="M 1300.89 1443.01 L 1327.59 1442.94 C 1327.76 1456.94 1327.7 1470.95 1327.42 1484.95 C 1322.79 1485.63 1306.65 1485.48 1300.98 1485.51 C 1300.79 1471.34 1300.99 1457.19 1300.89 1443.01 z" fill="rgb(254,54,8)" transform="translate(0,0)"></path>
<path d="M 673.906 1442.86 L 699.81 1442.83 L 699.851 1485.32 L 674.089 1485.27 C 673.88 1471.14 673.819 1457 673.906 1442.86 z" fill="rgb(254,54,8)" transform="translate(0,0)"></path>
<path d="M 647.644 1442.01 C 654.478 1442.45 661.294 1442.6 668.138 1442.84 C 668.763 1456.52 669.011 1471.44 668.219 1485.04 C 668.17 1485.87 665.899 1485.93 665.499 1485.93 L 664.249 1485.98 C 653.708 1485.79 646.424 1487.37 643.019 1476 C 639.625 1464.67 641.99 1452.09 647.644 1442.01 z" fill="rgb(254,54,8)" transform="translate(0,0)"></path>
<path d="M 705.323 1442.67 C 713.62 1442.58 721.917 1442.56 730.215 1442.63 C 730.374 1456.86 730.38 1471.09 730.234 1485.33 L 705.337 1485.36 C 705.137 1471.56 704.981 1456.44 705.323 1442.67 z" fill="rgb(254,54,8)" transform="translate(0,0)"></path>
<path d="M 736.037 1442.19 C 740.737 1442.59 743.807 1441.33 744.833 1446.48 C 747.705 1460.89 755.841 1472.14 762.298 1484.83 C 753.604 1485.15 744.672 1485.06 735.946 1485.14 C 735.837 1472.28 735.38 1454.74 736.037 1442.19 z" fill="rgb(254,54,8)" transform="translate(0,0)"></path>
<path d="M 1292.3 1460.84 C 1292.59 1458.95 1293.84 1455.87 1294.95 1454.39 C 1295.15 1454.45 1295.31 1454.46 1295.33 1454.64 C 1295.87 1460.71 1295.69 1475.97 1295.16 1481.16 C 1295.28 1482.15 1295.66 1484.33 1294.93 1485.03 C 1293.54 1486.35 1279.07 1485.88 1276.94 1485.9 C 1282.78 1476.96 1286.97 1469.33 1292.3 1460.84 z" fill="rgb(254,54,8)" transform="translate(0,0)"></path>
<path d="M 1137.14 1199.18 C 1144.36 1196.65 1150.97 1193.46 1158.24 1191 C 1152.07 1195.73 1148.4 1198.49 1141.73 1202.54 C 1139.83 1200.29 1139.94 1199.9 1137.14 1199.18 z" fill="rgb(1,36,221)" transform="translate(0,0)"></path>
<path d="M 962.742 1244.49 C 965.651 1245.34 968.709 1247.45 971.263 1249.1 L 974.041 1250.87 C 969.521 1249.43 963.441 1247.38 958.985 1246.24 L 962.742 1244.49 z" fill="rgb(183,63,28)" transform="translate(0,0)"></path>
<path d="M 780.259 1710.9 C 785.69 1713.13 773.111 1715.45 771.688 1715.86 C 770.768 1715.65 771.05 1715.76 770.669 1715.57 L 770.638 1715.47 C 771.713 1713.81 778.392 1711.55 780.259 1710.9 z" fill="rgb(141,139,139)" transform="translate(0,0)"></path>
<path d="M 1076.81 1245.22 L 1081.1 1246.89 C 1078.48 1247.48 1075.93 1248.37 1073.51 1249.54 L 1071.36 1248.13 C 1073.24 1247.08 1074.88 1246.18 1076.81 1245.22 z" fill="rgb(183,63,28)" transform="translate(0,0)"></path>
<path d="M 1259.32 1711.98 C 1262.14 1711.77 1262.61 1712.73 1264.19 1715.06 C 1262.05 1714.42 1258.76 1714.53 1259.32 1711.98 z" fill="rgb(185,172,157)" transform="translate(0,0)"></path>
<path d="M 1073.51 1249.54 C 1072.71 1249.77 1069.25 1251.14 1068.53 1250.39 L 1068.56 1250.05 C 1069.38 1249.03 1070.15 1248.76 1071.36 1248.13 L 1073.51 1249.54 z" fill="rgb(132,57,37)" transform="translate(0,0)"></path>
<metadata><recraft-signature>{"signed_by": "recraft", "signature_b64": "LEsMfBQIgcwqbhV/yIghJZrnUKOHhYtDqovu0ahuQDgl+1tT58xxcrqUUzTzWig4gnsSxweZRpsF2S5QL1zFBw==", "signing_algo": "Ed25519", "generation_timestamp": 1776833090, "identifier": "ff500f3f-67ed-46e0-a518-af61e0a7f4da"}</recraft-signature></metadata></g></svg>